<?xml version="1.0" encoding="utf-8"?>
<!-- Generator: Adobe Illustrator 20.0.0, SVG Export Plug-In . SVG Version: 6.00 Build 0)  -->
<svg version="1.1" id="Layer_1" xmlns="http://www.w3.org/2000/svg" xmlns:xlink="http://www.w3.org/1999/xlink" x="0px" y="0px"
	 viewBox="0 0 72 57.6" style="enable-background:new 0 0 72 57.6;" xml:space="preserve">
<style type="text/css">
	.st0{fill:#010101;}
</style>
<path class="st0" d="M58.3,23.3c2.9-5.6,5.7-11,8.5-16c1-1.7,1.4-2.9,1.3-3.7c-0.2-1.1-1.6-2.4-3.3-2.4c0,0,0,0,0,0
	c-1.6,0-2.9,0.7-3.9,2.1c-1.5,2-2.9,3.7-4,5.2c-2.1,2.5-5.2,5.8-9.3,9.7c-1.7,1.6-3.6,3.3-5.4,5l-2.3,1.7
	c-9.1,1.4-13.5,3.1-19.1,5.5c-4.2,1.7-8,3.7-11.2,5.9c-5,3.3-8.2,6.1-8,9.5c0.2,2.4,3.1,2.2,4.5,2.1c1.2-0.1,2.3-0.3,3.4-0.7
	c7.3-2.6,12.6-5.9,22.3-12l2-1.2c3.4-2.1,6.8-4.6,10.3-7.4c3.1-0.4,6-0.7,8.7-0.8c-2.1,4.4-3.5,7.3-4.1,8.7
	c-2.2,5.1-3.1,9.4-2.9,12.7c0.1,1,0.3,2.2,0.6,3.3c0.6,1.9,2.5,3.5,4.3,4.3c1.3,0.6,2.6,0.8,4.2,0.8c0.4,0,0.9,0,1.3-0.1
	c2.4-0.2,4.6-1,5.6-1.5c0.8-0.4,1.3-1.2,1-1.8c-0.2-0.4-0.7-0.7-1.4-0.4c-2.7,1-4.8,1.5-6.1,1.5c-2-0.1-2.9-0.5-3.4-0.9
	c-1.6-1.2-1.8-3.6-1.9-4.6c-0.1-4,0.8-8.4,2.8-12.7c1.3-2.9,2.8-6.1,4.4-9.3c4.1,0.3,6.3,1.4,6.4,3.3c0,0.5-0.2,1.2-0.6,2.1
	c-0.5,0.9-0.6,1.2-0.6,1.5c-0.1,0.5,0.2,0.9,0.7,1c0.3,0.1,0.7,0.1,1.2-0.1c1.2-0.3,2.2-1.1,3.2-2.2c0.9-1.2,1.4-2.3,1.3-3.5
	C68.5,24.9,65.1,23.4,58.3,23.3z M59.5,11.2c-2.2,4.5-4.1,8.5-5.8,12.1c-2.1,0.1-4.4,0.3-6.9,0.6C51.3,19.9,55.6,15.7,59.5,11.2z
	 M7,42.4c2.2-2,6.8-5.3,11.9-7.9c4.5-2.2,9.1-4.1,13.8-5.5l0,0c0.9-0.3,1.6-0.5,2.2-0.8c0.1,0,0.1-0.1,0.2-0.1
	c-7.9,5.4-14.1,9.4-18.5,11.8c-7.2,4.2-10.7,4.8-11.5,4.7C5,44.4,5.4,43.8,7,42.4z"/>
</svg>
